#Comment line ignore any data following # character 
#Hierarchical Translation and Rotation (.htr) file 
[Header]	
#Header keywords are followed by a single value 
FileType HTR		#Single word string
DataType HTRS		#Translation followed by rotation and scale data
FileVersion 1		#integer
NumSegments 84		#integer
NumFrames 2		#integer
DataFrameRate 30		#integer, data frame rate in this file
EulerRotationOrder ZYX
CalibrationUnits mm
RotationUnits Degrees
GlobalAxisofGravity Y
BoneLengthAxis Y
ScaleFactor 1.00
[SegmentNames&Hierarchy]
#CHILD	PARENT
MASTER GLOBAL
root MASTER
chest root
L_mid_tent01 root
R_mid_tent01 root
spine01 root
Bip01_Neck chest
L_humerus chest
R_humerus chest
weapon_bone chest
Bip01_Head Bip01_Neck
eye_left_bone Bip01_Head
eye_right_bone Bip01_Head
L_forearm L_humerus
L_front_hand L_forearm
L_weapon_bone L_forearm
L_front_hand01_01 L_front_hand
L_front_hand02_01 L_front_hand
L_front_hand03_01 L_front_hand
L_front_hand01_02 L_front_hand01_01
L_front_hand02_02 L_front_hand02_01
L_front_hand03_02 L_front_hand03_01
R_forearm R_humerus
R_front_hand R_forearm
R_weapon_bone R_forearm
R_front_hand01_01 R_front_hand
R_front_hand02_01 R_front_hand
R_front_hand03_01 R_front_hand
R_front_hand01_02 R_front_hand01_01
R_front_hand02_02 R_front_hand02_01
R_front_hand03_02 R_front_hand03_01
null_rope01_connect L_mid_tent01
Rope1_Seg01 null_rope01_connect
Rope1_Seg02 Rope1_Seg01
Rope1_Seg03 Rope1_Seg02
Rope1_Seg04 Rope1_Seg03
Rope1_Seg05 Rope1_Seg04
Rope1_Seg06 Rope1_Seg05
Rope1_Seg07 Rope1_Seg06
Rope1_Seg09 Rope1_Seg07
L_mid_hand01 Rope1_Seg09
L_mid_hand02 Rope1_Seg09
L_mid_hand03 Rope1_Seg09
null_rope02_connect R_mid_tent01
Rope2_Seg01 null_rope02_connect
Rope2_Seg02 Rope2_Seg01
Rope2_Seg03 Rope2_Seg02
Rope2_Seg04 Rope2_Seg03
Rope2_Seg05 Rope2_Seg04
Rope2_Seg06 Rope2_Seg05
Rope2_Seg07 Rope2_Seg06
Rope2_Seg09 Rope2_Seg07
R_mid_hand01 Rope2_Seg09
R_mid_hand02 Rope2_Seg09
R_mid_hand03 Rope2_Seg09
spine02 spine01
spine03 spine02
pelvis spine03
null_rope03_connect pelvis
null_rope04_connect pelvis
Rope3_Seg01 null_rope03_connect
Rope3_Seg02 Rope3_Seg01
Rope3_Seg03 Rope3_Seg02
Rope3_Seg04 Rope3_Seg03
Rope3_Seg05 Rope3_Seg04
Rope3_Seg06 Rope3_Seg05
Rope3_Seg07 Rope3_Seg06
Rope3_Seg08 Rope3_Seg07
Rope3_Seg09 Rope3_Seg08
R_rear_hand01 Rope3_Seg09
R_rear_hand02 Rope3_Seg09
R_rear_hand03 Rope3_Seg09
Rope4_Seg01 null_rope04_connect
Rope4_Seg02 Rope4_Seg01
Rope4_Seg03 Rope4_Seg02
Rope4_Seg04 Rope4_Seg03
Rope4_Seg05 Rope4_Seg04
Rope4_Seg06 Rope4_Seg05
Rope4_Seg07 Rope4_Seg06
Rope4_Seg08 Rope4_Seg07
Rope4_Seg09 Rope4_Seg08
L_rear_hand01 Rope4_Seg09
L_rear_hand02 Rope4_Seg09
L_rear_hand03 Rope4_Seg09
[BasePosition]
#SegmentName Tx, Ty, Tz, Rx, Ry, Rz, BoneLength
MASTER 0.000000 0.000000 0.000000 -90.000000 0.000000 0.000000 10.000000 
root 0.000000 0.000000 0.000000 0.000000 0.000000 0.000000 10.000000 
chest 0.000000 0.000000 0.000000 0.000000 0.000000 0.000000 10.000000 
L_mid_tent01 0.000000 0.000000 0.000000 0.000000 0.000000 0.000000 10.000000 
R_mid_tent01 0.000000 0.000000 0.000000 0.000000 0.000000 0.000000 10.000000 
spine01 0.000000 0.000000 0.000000 0.000000 0.000000 0.000000 10.000000 
Bip01_Neck 0.000000 0.000000 0.000000 0.000000 0.000000 0.000000 10.000000 
L_humerus 0.000000 0.000000 0.000000 0.000000 0.000000 0.000000 10.000000 
R_humerus 0.000000 0.000000 0.000000 0.000000 0.000000 0.000000 10.000000 
weapon_bone 0.000000 0.000000 0.000000 0.000000 0.000000 0.000000 10.000000 
Bip01_Head 0.000000 0.000000 0.000000 0.000000 0.000000 0.000000 10.000000 
eye_left_bone 0.000000 0.000000 0.000000 0.000000 0.000000 0.000000 10.000000 
eye_right_bone 0.000000 0.000000 0.000000 0.000000 0.000000 0.000000 10.000000 
L_forearm 0.000000 0.000000 0.000000 0.000000 0.000000 0.000000 10.000000 
L_front_hand 0.000000 0.000000 0.000000 0.000000 0.000000 0.000000 10.000000 
L_weapon_bone 0.000000 0.000000 0.000000 0.000000 0.000000 0.000000 10.000000 
L_front_hand01_01 0.000000 0.000000 0.000000 0.000000 0.000000 0.000000 10.000000 
L_front_hand02_01 0.000000 0.000000 0.000000 0.000000 0.000000 0.000000 10.000000 
L_front_hand03_01 0.000000 0.000000 0.000000 0.000000 0.000000 0.000000 10.000000 
L_front_hand01_02 0.000000 0.000000 0.000000 0.000000 0.000000 0.000000 10.000000 
L_front_hand02_02 0.000000 0.000000 0.000000 0.000000 0.000000 0.000000 10.000000 
L_front_hand03_02 0.000000 0.000000 0.000000 0.000000 0.000000 0.000000 10.000000 
R_forearm 0.000000 0.000000 0.000000 0.000000 0.000000 0.000000 10.000000 
R_front_hand 0.000000 0.000000 0.000000 0.000000 0.000000 0.000000 10.000000 
R_weapon_bone 0.000000 0.000000 0.000000 0.000000 0.000000 0.000000 10.000000 
R_front_hand01_01 0.000000 0.000000 0.000000 0.000000 0.000000 0.000000 10.000000 
R_front_hand02_01 0.000000 0.000000 0.000000 0.000000 0.000000 0.000000 10.000000 
R_front_hand03_01 0.000000 0.000000 0.000000 0.000000 0.000000 0.000000 10.000000 
R_front_hand01_02 0.000000 0.000000 0.000000 0.000000 0.000000 0.000000 10.000000 
R_front_hand02_02 0.000000 0.000000 0.000000 0.000000 0.000000 0.000000 10.000000 
R_front_hand03_02 0.000000 0.000000 0.000000 0.000000 0.000000 0.000000 10.000000 
null_rope01_connect 0.000000 0.000000 0.000000 0.000000 0.000000 0.000000 10.000000 
Rope1_Seg01 0.000000 0.000000 0.000000 0.000000 0.000000 0.000000 10.000000 
Rope1_Seg02 0.000000 0.000000 0.000000 0.000000 0.000000 0.000000 10.000000 
Rope1_Seg03 0.000000 0.000000 0.000000 0.000000 0.000000 0.000000 10.000000 
Rope1_Seg04 0.000000 0.000000 0.000000 0.000000 0.000000 0.000000 10.000000 
Rope1_Seg05 0.000000 0.000000 0.000000 0.000000 0.000000 0.000000 10.000000 
Rope1_Seg06 0.000000 0.000000 0.000000 0.000000 0.000000 0.000000 10.000000 
Rope1_Seg07 0.000000 0.000000 0.000000 0.000000 0.000000 0.000000 10.000000 
Rope1_Seg09 0.000000 0.000000 0.000000 0.000000 0.000000 0.000000 10.000000 
L_mid_hand01 0.000000 0.000000 0.000000 0.000000 0.000000 0.000000 10.000000 
L_mid_hand02 0.000000 0.000000 0.000000 0.000000 0.000000 0.000000 10.000000 
L_mid_hand03 0.000000 0.000000 0.000000 0.000000 0.000000 0.000000 10.000000 
null_rope02_connect 0.000000 0.000000 0.000000 0.000000 0.000000 0.000000 10.000000 
Rope2_Seg01 0.000000 0.000000 0.000000 0.000000 0.000000 0.000000 10.000000 
Rope2_Seg02 0.000000 0.000000 0.000000 0.000000 0.000000 0.000000 10.000000 
Rope2_Seg03 0.000000 0.000000 0.000000 0.000000 0.000000 0.000000 10.000000 
Rope2_Seg04 0.000000 0.000000 0.000000 0.000000 0.000000 0.000000 10.000000 
Rope2_Seg05 0.000000 0.000000 0.000000 0.000000 0.000000 0.000000 10.000000 
Rope2_Seg06 0.000000 0.000000 0.000000 0.000000 0.000000 0.000000 10.000000 
Rope2_Seg07 0.000000 0.000000 0.000000 0.000000 0.000000 0.000000 10.000000 
Rope2_Seg09 0.000000 0.000000 0.000000 0.000000 0.000000 0.000000 10.000000 
R_mid_hand01 0.000000 0.000000 0.000000 0.000000 0.000000 0.000000 10.000000 
R_mid_hand02 0.000000 0.000000 0.000000 0.000000 0.000000 0.000000 10.000000 
R_mid_hand03 0.000000 0.000000 0.000000 0.000000 0.000000 0.000000 10.000000 
spine02 0.000000 0.000000 0.000000 0.000000 0.000000 0.000000 10.000000 
spine03 0.000000 0.000000 0.000000 0.000000 0.000000 0.000000 10.000000 
pelvis 0.000000 0.000000 0.000000 0.000000 0.000000 0.000000 10.000000 
null_rope03_connect 0.000000 0.000000 0.000000 0.000000 0.000000 0.000000 10.000000 
null_rope04_connect 0.000000 0.000000 0.000000 0.000000 0.000000 0.000000 10.000000 
Rope3_Seg01 0.000000 0.000000 0.000000 0.000000 0.000000 0.000000 10.000000 
Rope3_Seg02 0.000000 0.000000 0.000000 0.000000 0.000000 0.000000 10.000000 
Rope3_Seg03 0.000000 0.000000 0.000000 0.000000 0.000000 0.000000 10.000000 
Rope3_Seg04 0.000000 0.000000 0.000000 0.000000 0.000000 0.000000 10.000000 
Rope3_Seg05 0.000000 0.000000 0.000000 0.000000 0.000000 0.000000 10.000000 
Rope3_Seg06 0.000000 0.000000 0.000000 0.000000 0.000000 0.000000 10.000000 
Rope3_Seg07 0.000000 0.000000 0.000000 0.000000 0.000000 0.000000 10.000000 
Rope3_Seg08 0.000000 0.000000 0.000000 0.000000 0.000000 0.000000 10.000000 
Rope3_Seg09 0.000000 0.000000 0.000000 0.000000 0.000000 0.000000 10.000000 
R_rear_hand01 0.000000 0.000000 0.000000 0.000000 0.000000 0.000000 10.000000 
R_rear_hand02 0.000000 0.000000 0.000000 0.000000 0.000000 0.000000 10.000000 
R_rear_hand03 0.000000 0.000000 0.000000 0.000000 0.000000 0.000000 10.000000 
Rope4_Seg01 0.000000 0.000000 0.000000 0.000000 0.000000 0.000000 10.000000 
Rope4_Seg02 0.000000 0.000000 0.000000 0.000000 0.000000 0.000000 10.000000 
Rope4_Seg03 0.000000 0.000000 0.000000 0.000000 0.000000 0.000000 10.000000 
Rope4_Seg04 0.000000 0.000000 0.000000 0.000000 0.000000 0.000000 10.000000 
Rope4_Seg05 0.000000 0.000000 0.000000 0.000000 0.000000 0.000000 10.000000 
Rope4_Seg06 0.000000 0.000000 0.000000 0.000000 0.000000 0.000000 10.000000 
Rope4_Seg07 0.000000 0.000000 0.000000 0.000000 0.000000 0.000000 10.000000 
Rope4_Seg08 0.000000 0.000000 0.000000 0.000000 0.000000 0.000000 10.000000 
Rope4_Seg09 0.000000 0.000000 0.000000 0.000000 0.000000 0.000000 10.000000 
L_rear_hand01 0.000000 0.000000 0.000000 0.000000 0.000000 0.000000 10.000000 
L_rear_hand02 0.000000 0.000000 0.000000 0.000000 0.000000 0.000000 10.000000 
L_rear_hand03 0.000000 0.000000 0.000000 0.000000 0.000000 0.000000 10.000000 
#Beginning of Data. Separated by tabs
#Fr	Tx	Ty	Tz	Rx	Ry	Rz	SF
[MASTER]
24 0.000000 0.000000 0.000000 0.001660 0.001660 0.001660 0.000000
25 0.000000 0.000000 0.000000 0.001660 0.001660 0.001660 0.000000
[root]
24 -13.125629 -62.822117 575.537720 -85.548683 -4.438272 -90.657875 579.104980
25 -16.693693 -62.822117 590.308533 -85.598282 -4.330973 -90.647911 593.876648
[chest]
24 -81.514328 -3.892555 -22.144138 2.999538 2.361648 157.967361 84.558266
25 -82.008636 -8.870913 -18.493511 3.128947 3.729558 159.123322 84.534721
[L_mid_tent01]
24 27.299498 22.177530 -249.917984 5.775431 12.106966 100.251144 252.380859
25 27.139299 22.269258 -248.888657 13.881476 14.145301 99.863892 251.352386
[R_mid_tent01]
24 23.228794 24.509907 226.238495 165.033493 -28.683411 91.474152 228.744751
25 23.228794 24.509907 226.238495 178.650513 -27.274321 91.355042 228.744751
[spine01]
24 -0.361383 -0.195265 0.000000 -0.000001 -0.000007 22.052340 0.410763
25 -0.361383 -0.195265 0.000000 -0.000001 -0.000007 22.052340 0.410763
[Bip01_Neck]
24 165.484543 71.581718 0.000119 175.896118 1.177290 24.871183 180.302734
25 165.484543 71.581718 0.000119 175.896118 1.177290 24.871183 180.302734
[L_humerus]
24 -13.983130 -135.272980 -120.471481 36.878342 69.644798 132.935440 181.680161
25 -13.983130 -135.272980 -120.471481 33.498917 70.061066 130.388702 181.680161
[R_humerus]
24 -13.983309 -135.273102 125.287651 -19.623785 -65.337509 130.656082 184.909012
25 -13.983309 -135.273102 125.287651 -19.059759 -62.869740 129.757736 184.909012
[weapon_bone]
24 235.964890 -300.705902 0.000000 0.000000 -89.951546 -128.212341 382.234833
25 235.964890 -300.705902 0.000000 0.000000 -89.951546 -128.212341 382.234833
[Bip01_Head]
24 195.537918 149.779312 7.321856 6.086238 3.462666 -24.917915 246.419418
25 203.026962 148.005157 9.582824 4.832948 3.537165 -23.010454 251.430511
[eye_left_bone]
24 -24.626970 125.451866 -64.772606 0.000000 -90.000000 -99.840431 143.318359
25 -24.626970 125.451866 -64.772606 0.000000 -90.000000 -99.840431 143.318359
[eye_right_bone]
24 -24.626970 125.451866 64.327362 0.000000 -89.960434 80.159386 143.117676
25 -24.626970 125.451866 64.327362 0.000000 -89.960434 80.159386 143.117676
[L_forearm]
24 322.776093 0.000000 -0.000119 0.000198 -0.002339 -99.655594 322.776093
25 322.776093 0.000000 -0.000119 0.000158 -0.002342 -97.732498 322.776093
[L_front_hand]
24 241.149185 -0.042021 -3.300071 139.489441 4.177812 -2.695735 241.171753
25 241.149185 -0.042021 -3.300071 130.166702 4.293526 -5.977306 241.171753
[L_weapon_bone]
24 156.183838 0.000000 0.000000 0.000014 0.000007 0.000001 156.183838
25 156.183838 0.000000 0.000000 0.000014 0.000007 0.000001 156.183838
[L_front_hand01_01]
24 86.095154 20.947098 -0.655860 -0.366594 -0.477154 75.385574 88.609184
25 86.095154 20.947098 -0.655860 -0.366594 -0.477154 75.385574 88.609184
[L_front_hand02_01]
24 86.935165 -11.437475 24.513514 154.399796 -59.883835 -61.369587 91.046425
25 86.935165 -11.437475 24.513514 154.399811 -59.883842 -61.369587 91.046425
[L_front_hand03_01]
24 86.637497 -14.123976 -20.424902 -153.913849 58.118107 -62.702850 90.126129
25 86.637497 -14.123976 -20.424902 -153.913864 58.118130 -62.702873 90.126129
[L_front_hand01_02]
24 71.020905 -0.000179 0.000030 0.000662 0.002262 -57.379948 71.020905
25 71.020905 -0.000179 0.000030 0.000452 0.002303 -67.810249 71.020905
[L_front_hand02_02]
24 71.020927 -0.000119 0.000060 0.000662 0.002262 -57.379948 71.020927
25 71.020927 -0.000119 0.000060 0.000452 0.002303 -67.810249 71.020927
[L_front_hand03_02]
24 71.020905 -0.000060 0.000060 0.000662 0.002262 -57.379948 71.020905
25 71.020905 -0.000060 0.000060 0.000452 0.002303 -67.810249 71.020905
[R_forearm]
24 322.776428 -0.000060 0.000030 0.212199 -0.026626 -83.813393 322.776428
25 322.776428 -0.000060 0.000030 0.211965 -0.028427 -82.840240 322.776428
[R_front_hand]
24 238.847015 -0.006795 2.210259 43.380207 -8.143712 -8.951588 238.857239
25 238.847015 -0.006795 2.210259 53.566875 -8.343403 -13.618084 238.857239
[R_weapon_bone]
24 155.664093 0.002503 -0.000030 0.003487 0.001180 -90.988930 155.664078
25 155.664093 0.002503 -0.000030 0.003487 0.001180 -90.988930 155.664078
[R_front_hand01_01]
24 87.624611 14.231146 22.918642 -154.633484 -59.950619 61.746037 91.683487
25 87.624611 14.231146 22.918642 -154.633514 -59.950634 61.746063 91.683487
[R_front_hand02_01]
24 89.356956 14.367283 -19.491137 154.595840 58.306190 63.741745 92.579636
25 89.356956 14.367283 -19.491137 154.595825 58.306183 63.741730 92.579636
[R_front_hand03_01]
24 87.286232 -22.307278 -0.143439 0.162155 -0.423168 -75.767921 90.091743
25 87.286232 -22.307278 -0.143439 0.162155 -0.423168 -75.767921 90.091743
[R_front_hand01_02]
24 71.020905 0.000060 0.000119 0.002262 0.000662 57.380783 71.020905
25 71.020905 0.000060 0.000119 0.002303 0.000452 67.808304 71.020905
[R_front_hand02_02]
24 71.020844 -0.000030 -0.000119 0.002262 0.000662 57.380783 71.020836
25 71.020844 -0.000030 -0.000119 0.002303 0.000452 67.808304 71.020836
[R_front_hand03_02]
24 71.020905 0.000000 0.000030 0.002262 0.000662 57.380783 71.020905
25 71.020905 0.000000 0.000030 0.002303 0.000452 67.808304 71.020905
[null_rope01_connect]
24 328.732483 0.000000 -0.000238 -149.250000 -80.502846 143.859085 328.732483
25 328.732483 0.000000 -0.000238 -130.106216 -73.183372 125.804123 328.732483
[Rope1_Seg01]
24 -0.000024 0.000009 0.000036 123.131554 -25.481796 128.138855 0.000044
25 -0.000023 0.000008 0.000031 124.432854 -26.697018 126.125603 0.000039
[Rope1_Seg02]
24 139.999863 -0.000179 0.000000 -1.108623 -1.608105 -1.249091 139.999863
25 139.999863 -0.000179 0.000000 -1.283404 -1.573529 -1.519116 139.999863
[Rope1_Seg03]
24 139.999924 0.000060 -0.000060 -1.631913 -2.340612 -1.894510 139.999924
25 139.999924 0.000060 -0.000060 -1.886441 -2.297644 -2.320564 139.999924
[Rope1_Seg04]
24 139.999924 -0.000060 -0.000119 -2.718992 -3.848911 -3.312974 139.999924
25 139.999924 -0.000060 -0.000119 -3.100791 -3.798497 -4.109077 139.999924
[Rope1_Seg05]
24 139.999832 0.000119 -0.000060 -5.701268 -9.363672 -5.306729 139.999832
25 139.999832 0.000119 -0.000060 -6.277673 -8.996601 -8.426267 139.999832
[Rope1_Seg06]
24 139.999954 0.000119 -0.000060 -8.770709 -18.415123 -36.350716 139.999954
25 139.999954 0.000119 -0.000060 -6.826507 -17.420954 -39.043755 139.999954
[Rope1_Seg07]
24 139.999985 0.000060 0.000000 3.486589 -2.704899 -45.519035 139.999985
25 139.999985 0.000060 0.000000 4.513935 -4.118410 -40.211403 139.999985
[Rope1_Seg09]
24 121.602913 0.000119 -0.000089 -89.793175 -1.359789 0.847147 121.602913
25 121.602913 0.000119 -0.000089 -89.793175 -1.359789 0.847147 121.602913
[L_mid_hand01]
24 103.859421 1.038730 8.195221 106.243385 -27.610735 -8.221348 104.187431
25 103.859421 1.038730 8.195221 106.243362 -27.610722 -8.221345 104.187431
[L_mid_hand02]
24 105.572853 -4.139662 -10.864139 -140.972244 23.403242 -25.511135 106.211075
25 105.572853 -4.139662 -10.864139 -140.972244 23.403244 -25.511135 106.211075
[L_mid_hand03]
24 104.641464 17.579376 -3.913581 -16.709755 8.664802 30.543978 106.179977
25 104.641464 17.579376 -3.913581 -16.709753 8.664801 30.543972 106.179977
[null_rope02_connect]
24 328.732849 0.000179 -0.000119 -151.630722 54.259586 20.771212 328.732849
25 328.732849 0.000179 -0.000119 -175.325790 58.352642 1.150329 328.732849
[Rope2_Seg01]
24 -0.000036 -0.000083 0.000000 -56.777180 -27.873259 66.385246 0.000091
25 -0.000042 -0.000092 0.000000 -55.064144 -25.971561 64.087990 0.000101
[Rope2_Seg02]
24 139.999741 -0.000060 -0.000119 2.531882 3.216669 4.404034 139.999756
25 139.999741 -0.000060 -0.000119 2.199548 2.858876 4.347595 139.999756
[Rope2_Seg03]
24 140.000107 0.000030 0.000000 3.652010 5.202056 6.545811 140.000107
25 140.000107 0.000030 0.000000 3.204183 4.569860 6.445981 140.000107
[Rope2_Seg04]
24 139.999802 0.000000 -0.000060 5.331291 10.257607 10.080624 139.999802
25 139.999802 0.000000 -0.000060 4.833835 8.763723 10.064777 139.999802
[Rope2_Seg05]
24 139.999985 -0.000060 0.000119 5.214244 14.590416 13.287766 139.999985
25 139.999985 -0.000060 0.000119 5.340913 13.046371 13.822785 139.999985
[Rope2_Seg06]
24 139.999893 -0.000030 -0.000119 7.349008 18.366825 30.624680 139.999893
25 139.999893 -0.000030 -0.000119 8.210546 18.866283 30.417055 139.999893
[Rope2_Seg07]
24 139.999893 0.000060 -0.000060 4.435006 21.344202 33.858192 139.999893
25 139.999893 0.000060 -0.000060 4.575667 21.987085 32.600033 139.999893
[Rope2_Seg09]
24 121.338966 0.000089 -0.000060 33.793236 -1.359788 -0.847141 121.338966
25 121.338966 0.000089 -0.000060 33.793236 -1.359788 -0.847141 121.338966
[R_mid_hand01]
24 104.680779 11.144459 -10.335981 -42.750732 22.953909 25.606682 105.778534
25 104.680779 11.144459 -10.335981 -42.750736 22.953909 25.606682 105.778534
[R_mid_hand02]
24 104.070427 2.443552 8.231699 73.485046 -29.224543 8.771014 104.424065
25 104.070427 2.443552 8.231699 73.485046 -29.224543 8.771014 104.424065
[R_mid_hand03]
24 106.028137 -11.221827 -5.996406 -167.274673 9.466213 -33.359013 106.788818
25 106.028137 -11.221827 -5.996406 -167.274673 9.466213 -33.359016 106.788818
[spine02]
24 129.756927 0.001550 0.000119 -0.251321 -4.057117 -4.320669 129.756927
25 129.756927 0.001550 0.000119 -0.245320 -4.052060 -4.355565 129.756927
[spine03]
24 78.616028 0.086840 -4.877384 0.368076 4.280573 -4.905566 78.767227
25 78.613838 0.087219 -4.898800 0.369658 4.260735 -4.885723 78.766373
[pelvis]
24 169.435242 0.051022 0.000000 -0.006996 -0.082535 -1.714554 169.435257
25 169.435242 0.051022 0.000000 -0.010007 -0.191416 -1.897583 169.435257
[null_rope03_connect]
24 -1.257226 -2.466202 137.391083 -5.987203 -85.097275 89.343918 137.418976
25 -1.257226 -2.466202 137.391083 -4.653735 -85.148285 88.102417 137.418976
[null_rope04_connect]
24 -1.259640 -2.480268 -137.844437 -5.987203 -85.097275 89.343918 137.872513
25 -1.259640 -2.480268 -137.844437 -4.653735 -85.148285 88.102417 137.872513
[Rope3_Seg01]
24 0.000000 0.000000 0.000000 -152.244980 -42.931049 -51.766582 0.000000
25 0.000000 0.000000 0.000000 -152.961517 -41.787281 -49.831177 0.000000
[Rope3_Seg02]
24 139.999924 -0.000119 0.000060 6.940854 -11.110345 9.054656 139.999924
25 139.999924 -0.000119 0.000060 7.369734 -10.950097 9.578886 139.999924
[Rope3_Seg03]
24 139.999924 -0.000119 0.000119 7.328152 -14.791533 16.208755 139.999924
25 139.999924 -0.000119 0.000119 7.425407 -14.114142 16.860317 139.999924
[Rope3_Seg04]
24 139.999924 0.000119 0.000000 3.604421 -11.763620 19.038090 139.999924
25 139.999924 0.000119 0.000000 3.364561 -10.491759 19.451242 139.999924
[Rope3_Seg05]
24 139.999924 -0.000238 0.000060 0.895196 -7.266303 13.211379 139.999924
25 139.999924 -0.000238 0.000060 0.664494 -6.694164 13.080482 139.999924
[Rope3_Seg06]
24 139.999893 -0.000119 -0.000060 -1.453334 -10.082208 17.274363 139.999893
25 139.999893 -0.000119 -0.000060 -1.613737 -9.948445 16.487251 139.999893
[Rope3_Seg07]
24 139.999771 0.000060 -0.000119 -5.725631 -12.140031 20.818739 139.999771
25 139.999771 0.000060 -0.000119 -5.903246 -12.606072 20.467817 139.999771
[Rope3_Seg08]
24 139.999985 -0.000060 0.000000 -3.866009 -7.140349 10.739095 139.999985
25 139.999985 -0.000060 0.000000 -3.935687 -7.432098 10.765390 139.999985
[Rope3_Seg09]
24 90.185997 -0.000179 -0.000060 89.793228 -1.359877 -0.847183 90.185997
25 90.185997 -0.000179 -0.000060 89.793228 -1.359877 -0.847183 90.185997
[R_rear_hand01]
24 103.366196 -6.073594 -10.757982 -161.551193 16.666374 -30.088671 104.101845
25 103.366196 -6.073594 -10.757982 -161.551193 16.666374 -30.088671 104.101845
[R_rear_hand02]
24 100.509819 12.039542 -7.992327 -34.280552 19.289745 28.875523 101.543350
25 100.509819 12.039542 -7.992327 -34.280552 19.289745 28.875523 101.543350
[R_rear_hand03]
24 101.539970 5.215704 5.435467 83.366440 -30.933914 7.284830 101.819031
25 101.539970 5.215704 5.435467 83.366440 -30.933914 7.284830 101.819031
[Rope4_Seg01]
24 -0.000017 -0.000056 -0.000088 86.260559 -46.299637 -146.992844 0.000106
25 -0.000019 -0.000053 -0.000092 84.881638 -45.890602 -145.907608 0.000108
[Rope4_Seg02]
24 139.999985 0.000060 0.000119 -8.313760 4.284219 -8.041825 139.999985
25 139.999985 0.000060 0.000119 -8.304966 4.273416 -8.204780 139.999985
[Rope4_Seg03]
24 139.999924 0.000000 -0.000238 -15.843654 10.907121 -15.281285 139.999924
25 139.999924 0.000000 -0.000238 -16.084326 11.040418 -15.794352 139.999924
[Rope4_Seg04]
24 139.999985 0.000000 0.000119 -22.371927 29.427652 -25.733805 139.999985
25 139.999985 0.000000 0.000119 -22.792620 29.761925 -26.711048 139.999985
[Rope4_Seg05]
24 139.999802 -0.000060 -0.000119 -4.173448 25.906370 -11.071903 139.999802
25 139.999802 -0.000060 -0.000119 -4.001962 25.450418 -11.199509 139.999802
[Rope4_Seg06]
24 139.999924 0.000000 0.000060 0.937864 9.467277 -6.455222 139.999924
25 139.999924 0.000000 0.000060 0.930588 9.103971 -6.049646 139.999924
[Rope4_Seg07]
24 139.999802 0.000000 0.000000 2.164241 8.413776 -11.839250 139.999802
25 139.999802 0.000000 0.000000 2.050885 7.921912 -10.571961 139.999802
[Rope4_Seg08]
24 139.999924 0.000000 0.000119 1.328563 10.120881 -12.263554 139.999924
25 139.999924 0.000000 0.000119 1.287920 9.903764 -11.374012 139.999924
[Rope4_Seg09]
24 90.185791 0.000060 0.000060 -135.617828 2.228885 0.850567 90.185791
25 90.185791 0.000060 0.000060 -135.617828 2.228885 0.850567 90.185791
[L_rear_hand01]
24 101.696655 -8.392275 -7.654577 -35.093945 -17.603296 153.690521 102.329041
25 101.696655 -8.392275 -7.654577 -35.094200 -17.603151 153.690506 102.329041
[L_rear_hand02]
24 102.726799 -1.568258 5.773216 83.558731 27.991127 173.101837 102.900848
25 102.726799 -1.568258 5.773216 83.558685 27.990973 173.101700 102.900848
[L_rear_hand03]
24 104.552910 9.721220 -10.420293 -160.738983 -15.709708 -152.831390 105.519653
25 104.552910 9.721220 -10.420293 -160.738953 -15.709674 -152.831604 105.519653
